<?xml version="1.0" encoding="utf-8"?>
<!-- Generator: Adobe Illustrator 24.0.0, SVG Export Plug-In . SVG Version: 6.00 Build 0)  -->
<svg version="1.1" id="Capa_1" xmlns="http://www.w3.org/2000/svg" xmlns:xlink="http://www.w3.org/1999/xlink" x="0px" y="0px"
	 viewBox="0 0 175.5 60" style="enable-background:new 0 0 175.5 60;" xml:space="preserve">
<style type="text/css">
	.st0{fill:#ED8A47;}
	.st1{fill:#919193;}
</style>
<g>
	<g>
		<g>
			<g>
				<polygon class="st0" points="71.4,10.4 71.4,18.6 81.9,18.6 81.9,22.7 71.4,22.7 71.4,30.9 83.5,30.9 83.5,34.9 67,34.9 67,6.4 
					83.5,6.4 83.5,10.4 				"/>
			</g>
		</g>
		<g>
			<path class="st1" d="M69.6,42.9v2h3v1.5h-3v2h3.5v1.5H68v-8.5h5.1v1.5L69.6,42.9L69.6,42.9z"/>
			<path class="st1" d="M75,49.8c-0.4-0.1-0.8-0.3-1.1-0.5l0.7-1.1c0.2,0.2,0.5,0.3,0.8,0.4s0.6,0.2,0.9,0.2c0.2,0,0.4,0,0.6-0.1
				s0.2-0.2,0.2-0.4c0-0.1,0-0.2-0.1-0.3s-0.2-0.1-0.3-0.2c-0.1,0-0.3-0.1-0.5-0.1c-0.1,0-0.2-0.1-0.4-0.1c-0.3-0.1-0.6-0.2-0.8-0.3
				s-0.4-0.3-0.6-0.5c-0.1-0.2-0.2-0.5-0.2-0.8c0-0.4,0.1-0.7,0.3-0.9c0.2-0.3,0.5-0.4,0.8-0.5s0.7-0.2,1.1-0.2c0.4,0,0.7,0,1.1,0.2
				c0.4,0.1,0.7,0.2,0.9,0.4l-0.7,1c-0.2-0.1-0.4-0.2-0.7-0.3c-0.3-0.1-0.5-0.1-0.7-0.1c-0.2,0-0.4,0-0.5,0.1s-0.2,0.2-0.2,0.3
				c0,0.1,0,0.2,0.1,0.3c0.1,0.1,0.2,0.1,0.3,0.2c0.1,0,0.3,0.1,0.5,0.2l0.2,0.1c0.4,0.1,0.7,0.2,0.9,0.3s0.4,0.3,0.6,0.5
				s0.2,0.5,0.2,0.8c0,0.4-0.1,0.7-0.3,1c-0.2,0.3-0.4,0.5-0.8,0.6c-0.3,0.1-0.7,0.2-1.2,0.2C75.8,50,75.4,49.9,75,49.8z"/>
			<path class="st1" d="M80.6,49.6c-0.4-0.3-0.8-0.6-1-1s-0.4-0.9-0.4-1.4c0-0.5,0.1-1,0.4-1.4c0.3-0.4,0.6-0.8,1-1
				c0.4-0.3,0.9-0.4,1.4-0.4c0.4,0,0.7,0.1,1.1,0.2s0.6,0.3,0.9,0.6s0.4,0.5,0.6,0.9l-1.3,0.6c-0.1-0.3-0.3-0.5-0.5-0.6
				c-0.2-0.2-0.5-0.2-0.8-0.2c-0.3,0-0.5,0.1-0.7,0.2s-0.4,0.3-0.5,0.5s-0.2,0.4-0.2,0.7s0.1,0.5,0.2,0.7c0.1,0.2,0.3,0.4,0.5,0.5
				s0.4,0.2,0.7,0.2c0.3,0,0.5-0.1,0.8-0.2s0.4-0.3,0.5-0.6l1.3,0.5c-0.1,0.3-0.3,0.6-0.6,0.9s-0.6,0.5-0.9,0.6S82.4,50,82,50
				C81.5,50,81,49.9,80.6,49.6z"/>
			<path class="st1" d="M86.6,49.7c-0.4-0.2-0.6-0.4-0.8-0.7c-0.2-0.3-0.3-0.7-0.3-1.1v-3.3h1.6v3.2c0,0.3,0.1,0.5,0.2,0.7
				c0.1,0.2,0.4,0.2,0.6,0.2s0.5-0.1,0.6-0.2s0.2-0.4,0.2-0.7v-3.2h1.6v3.3c0,0.4-0.1,0.8-0.3,1.1s-0.5,0.6-0.8,0.7
				c-0.4,0.2-0.8,0.3-1.3,0.3C87.4,50,87,49.9,86.6,49.7z"/>
			<path class="st1" d="M96.9,47.5h-4c0.1,0.4,0.2,0.7,0.4,0.9c0.2,0.2,0.5,0.3,0.9,0.3c0.3,0,0.5-0.1,0.7-0.2s0.4-0.3,0.5-0.5
				l1.3,0.5c-0.2,0.5-0.5,0.8-1,1S94.8,50,94.2,50c-0.6,0-1.1-0.1-1.5-0.4c-0.4-0.2-0.8-0.6-1-1c-0.2-0.4-0.4-0.9-0.4-1.4
				c0-0.5,0.1-1,0.4-1.4c0.2-0.4,0.6-0.8,1-1c0.4-0.3,0.9-0.4,1.5-0.4c0.5,0,1,0.1,1.4,0.3s0.7,0.5,1,1c0.2,0.4,0.4,0.9,0.4,1.4
				L96.9,47.5L96.9,47.5z M93.5,45.9c-0.2,0.2-0.4,0.3-0.4,0.6h2.3c-0.2-0.6-0.5-0.8-1.1-0.8C93.9,45.7,93.7,45.7,93.5,45.9z"/>
			<path class="st1" d="M98,41.4h1.6v8.5H98V41.4z"/>
			<path class="st1" d="M106.6,44.6v5.3h-1.5l-0.1-0.7c-0.2,0.3-0.4,0.5-0.7,0.6s-0.6,0.2-1,0.2c-0.5,0-0.9-0.1-1.3-0.4
				s-0.7-0.6-0.9-1s-0.4-0.9-0.4-1.4c0-0.5,0.1-1,0.4-1.4s0.5-0.8,0.9-1s0.8-0.4,1.3-0.4c0.7,0,1.3,0.3,1.7,0.8v-0.6L106.6,44.6
				L106.6,44.6z M104.4,48.4c0.2-0.1,0.4-0.3,0.5-0.5c0.1-0.2,0.2-0.5,0.2-0.7c0-0.3-0.1-0.5-0.2-0.7s-0.3-0.4-0.5-0.5
				c-0.2-0.1-0.4-0.2-0.7-0.2s-0.5,0.1-0.7,0.2c-0.2,0.1-0.4,0.3-0.5,0.5c-0.1,0.2-0.2,0.5-0.2,0.7s0.1,0.5,0.2,0.7
				c0.1,0.2,0.3,0.4,0.5,0.5c0.2,0.1,0.4,0.2,0.7,0.2C104,48.6,104.2,48.5,104.4,48.4z"/>
			<path class="st1" d="M116.3,41.4v8.5h-1.5l-0.1-0.7c-0.2,0.3-0.4,0.5-0.7,0.6s-0.6,0.2-1,0.2c-0.5,0-0.9-0.1-1.3-0.4
				s-0.7-0.6-0.9-1c-0.2-0.4-0.4-0.9-0.4-1.4c0-0.5,0.1-1,0.4-1.4s0.5-0.8,0.9-1c0.4-0.2,0.8-0.4,1.3-0.4c0.7,0,1.3,0.3,1.7,0.8
				v-3.8H116.3z M114.1,48.4c0.2-0.1,0.4-0.3,0.5-0.5c0.1-0.2,0.2-0.5,0.2-0.7c0-0.3-0.1-0.5-0.2-0.7s-0.3-0.4-0.5-0.5
				c-0.2-0.1-0.4-0.2-0.7-0.2s-0.5,0.1-0.7,0.2c-0.2,0.1-0.4,0.3-0.5,0.5s-0.2,0.5-0.2,0.7s0.1,0.5,0.2,0.7c0.1,0.2,0.3,0.4,0.5,0.5
				c0.2,0.1,0.4,0.2,0.7,0.2C113.7,48.6,113.9,48.5,114.1,48.4z"/>
			<path class="st1" d="M123,47.5h-4c0.1,0.4,0.2,0.7,0.4,0.9c0.2,0.2,0.5,0.3,0.9,0.3c0.3,0,0.5-0.1,0.7-0.2s0.4-0.3,0.5-0.5
				l1.3,0.5c-0.2,0.5-0.5,0.8-1,1s-0.9,0.4-1.5,0.4c-0.6,0-1.1-0.1-1.5-0.4c-0.4-0.2-0.8-0.6-1-1c-0.2-0.4-0.4-0.9-0.4-1.4
				c0-0.5,0.1-1,0.4-1.4c0.2-0.4,0.6-0.8,1-1c0.4-0.3,0.9-0.4,1.5-0.4c0.5,0,1,0.1,1.4,0.3s0.7,0.5,1,1c0.2,0.4,0.4,0.9,0.4,1.4
				L123,47.5L123,47.5z M119.5,45.9c-0.2,0.2-0.4,0.3-0.4,0.6h2.3c-0.2-0.6-0.5-0.8-1.1-0.8C120,45.7,119.7,45.7,119.5,45.9z"/>
			<path class="st1" d="M134.2,41.4v8.5H133l-4.4-5.6v5.6H127v-8.5h1.2l4.4,5.6v-5.6H134.2z"/>
			<path class="st1" d="M141,47.5h-4c0.1,0.4,0.2,0.7,0.4,0.9c0.2,0.2,0.5,0.3,0.9,0.3c0.3,0,0.5-0.1,0.7-0.2s0.4-0.3,0.5-0.5
				l1.3,0.5c-0.2,0.5-0.5,0.8-1,1S139,50,138.4,50c-0.6,0-1.1-0.1-1.5-0.4c-0.4-0.2-0.8-0.6-1-1c-0.2-0.4-0.4-0.9-0.4-1.4
				c0-0.5,0.1-1,0.4-1.4c0.2-0.4,0.6-0.8,1-1c0.4-0.3,0.9-0.4,1.5-0.4c0.5,0,1,0.1,1.4,0.3s0.7,0.5,1,1c0.2,0.4,0.4,0.9,0.4,1.4
				L141,47.5L141,47.5z M137.6,45.9c-0.2,0.2-0.4,0.3-0.4,0.6h2.3c-0.2-0.6-0.5-0.8-1.1-0.8C138,45.7,137.8,45.7,137.6,45.9z"/>
			<path class="st1" d="M147.6,44.6v5.1c0,0.6-0.1,1.2-0.4,1.6c-0.3,0.5-0.6,0.8-1.1,1s-1,0.3-1.6,0.3c-0.5,0-1-0.1-1.5-0.3
				s-0.9-0.5-1.2-0.9l0.9-1c0.3,0.3,0.5,0.5,0.8,0.6s0.6,0.2,0.9,0.2s0.5-0.1,0.8-0.2c0.2-0.1,0.4-0.3,0.5-0.6
				c0.1-0.2,0.2-0.5,0.2-0.9v-0.5c-0.4,0.5-0.9,0.8-1.6,0.8c-0.5,0-0.9-0.1-1.3-0.4c-0.4-0.2-0.7-0.6-0.9-1
				c-0.2-0.4-0.4-0.9-0.4-1.4s0.1-1,0.4-1.4c0.2-0.4,0.6-0.8,0.9-1c0.4-0.2,0.8-0.4,1.3-0.4c0.7,0,1.3,0.3,1.7,0.8v-0.7L147.6,44.6
				L147.6,44.6z M145.3,48.4c0.2-0.1,0.4-0.3,0.5-0.5c0.1-0.2,0.2-0.5,0.2-0.7c0-0.3-0.1-0.5-0.2-0.7s-0.3-0.4-0.5-0.5
				c-0.2-0.1-0.4-0.2-0.7-0.2s-0.5,0.1-0.7,0.2c-0.2,0.1-0.4,0.3-0.5,0.5c-0.1,0.2-0.2,0.5-0.2,0.7s0.1,0.5,0.2,0.7
				c0.1,0.2,0.3,0.4,0.5,0.5c0.2,0.1,0.4,0.2,0.7,0.2C144.9,48.6,145.1,48.5,145.3,48.4z"/>
			<path class="st1" d="M150,49.6c-0.4-0.3-0.8-0.6-1-1s-0.4-0.9-0.4-1.4c0-0.5,0.1-1,0.4-1.4c0.3-0.4,0.6-0.8,1-1
				c0.4-0.3,0.9-0.4,1.4-0.4s1,0.1,1.4,0.4s0.8,0.6,1,1s0.4,0.9,0.4,1.4c0,0.5-0.1,1-0.4,1.4s-0.6,0.8-1,1s-0.9,0.4-1.4,0.4
				C150.9,50,150.4,49.9,150,49.6z M152.1,48.4c0.2-0.1,0.4-0.3,0.5-0.5c0.1-0.2,0.2-0.4,0.2-0.7c0-0.3-0.1-0.5-0.2-0.7
				c-0.1-0.2-0.3-0.4-0.5-0.5c-0.2-0.1-0.4-0.2-0.7-0.2c-0.2,0-0.5,0.1-0.7,0.2c-0.2,0.1-0.4,0.3-0.5,0.5c-0.1,0.2-0.2,0.5-0.2,0.7
				s0.1,0.5,0.2,0.7c0.1,0.2,0.3,0.4,0.5,0.5c0.2,0.1,0.4,0.2,0.7,0.2C151.7,48.6,151.9,48.5,152.1,48.4z"/>
			<path class="st1" d="M156.3,49.6c-0.4-0.3-0.8-0.6-1-1s-0.4-0.9-0.4-1.4c0-0.5,0.1-1,0.4-1.4c0.3-0.4,0.6-0.8,1-1
				c0.4-0.3,0.9-0.4,1.4-0.4c0.4,0,0.7,0.1,1.1,0.2s0.6,0.3,0.9,0.6s0.4,0.5,0.6,0.9l-1.3,0.6c-0.1-0.3-0.3-0.5-0.5-0.6
				c-0.2-0.2-0.5-0.2-0.8-0.2c-0.3,0-0.5,0.1-0.7,0.2s-0.4,0.3-0.5,0.5s-0.2,0.4-0.2,0.7s0.1,0.5,0.2,0.7c0.1,0.2,0.3,0.4,0.5,0.5
				s0.4,0.2,0.7,0.2c0.3,0,0.5-0.1,0.8-0.2s0.4-0.3,0.5-0.6l1.3,0.5c-0.1,0.3-0.3,0.6-0.6,0.9s-0.6,0.5-0.9,0.6s-0.7,0.2-1.1,0.2
				C157.2,50,156.7,49.9,156.3,49.6z"/>
			<path class="st1" d="M161.7,43.5c-0.1-0.1-0.3-0.2-0.3-0.3c-0.1-0.1-0.1-0.3-0.1-0.4s0-0.3,0.1-0.5c0.1-0.1,0.2-0.2,0.3-0.3
				c0.1-0.1,0.3-0.1,0.4-0.1s0.3,0,0.4,0.1c0.1,0.1,0.3,0.2,0.3,0.3s0.1,0.3,0.1,0.5c0,0.2,0,0.3-0.1,0.4c-0.1,0.1-0.2,0.3-0.3,0.3
				s-0.3,0.1-0.4,0.1C162,43.6,161.8,43.6,161.7,43.5z M161.3,44.6h1.6v5.3h-1.6V44.6z"/>
			<path class="st1" d="M165.4,49.6c-0.4-0.3-0.8-0.6-1-1s-0.4-0.9-0.4-1.4c0-0.5,0.1-1,0.4-1.4c0.3-0.4,0.6-0.8,1-1
				c0.4-0.3,0.9-0.4,1.4-0.4s1,0.1,1.4,0.4s0.8,0.6,1,1s0.4,0.9,0.4,1.4c0,0.5-0.1,1-0.4,1.4s-0.6,0.8-1,1s-0.9,0.4-1.4,0.4
				C166.3,50,165.8,49.9,165.4,49.6z M167.5,48.4c0.2-0.1,0.4-0.3,0.5-0.5c0.1-0.2,0.2-0.4,0.2-0.7c0-0.3-0.1-0.5-0.2-0.7
				c-0.1-0.2-0.3-0.4-0.5-0.5c-0.2-0.1-0.4-0.2-0.7-0.2c-0.2,0-0.5,0.1-0.7,0.2c-0.2,0.1-0.4,0.3-0.5,0.5c-0.1,0.2-0.2,0.5-0.2,0.7
				s0.1,0.5,0.2,0.7c0.1,0.2,0.3,0.4,0.5,0.5c0.2,0.1,0.4,0.2,0.7,0.2C167.1,48.6,167.3,48.5,167.5,48.4z"/>
			<path class="st1" d="M171.3,49.8c-0.4-0.1-0.8-0.3-1.1-0.5l0.7-1.1c0.2,0.2,0.5,0.3,0.8,0.4s0.6,0.2,0.9,0.2c0.2,0,0.4,0,0.6-0.1
				s0.2-0.2,0.2-0.4c0-0.1,0-0.2-0.1-0.3c-0.1-0.1-0.2-0.1-0.3-0.2c-0.1,0-0.3-0.1-0.5-0.1c-0.1,0-0.2-0.1-0.4-0.1
				c-0.3-0.1-0.6-0.2-0.8-0.3s-0.4-0.3-0.6-0.5c-0.1-0.2-0.2-0.5-0.2-0.8c0-0.4,0.1-0.7,0.3-0.9c0.2-0.3,0.5-0.4,0.8-0.5
				s0.7-0.2,1.1-0.2c0.4,0,0.7,0,1.1,0.2c0.4,0.1,0.7,0.2,0.9,0.4l-0.7,1c-0.2-0.1-0.4-0.2-0.7-0.3c-0.3-0.1-0.5-0.1-0.7-0.1
				c-0.2,0-0.4,0-0.5,0.1s-0.2,0.2-0.2,0.3c0,0.1,0,0.2,0.1,0.3c0.1,0.1,0.2,0.1,0.3,0.2c0.1,0,0.3,0.1,0.6,0.2l0.2,0.1
				c0.4,0.1,0.7,0.2,0.9,0.3s0.4,0.3,0.6,0.5s0.2,0.5,0.2,0.8c0,0.4-0.1,0.7-0.3,1c-0.2,0.3-0.4,0.5-0.8,0.6
				c-0.3,0.1-0.7,0.2-1.2,0.2C172.2,50,171.7,49.9,171.3,49.8z"/>
		</g>
		<g>
			<g>
				<path class="st0" d="M50.5,32.4L50.5,32.4c-1.4,0-2.5-1.1-2.5-2.5v-8.5h-1.6v8.5c0,2.2,1.8,4,4,4h0l0,0h0.7v-1.5L50.5,32.4
					L50.5,32.4z"/>
			</g>
		</g>
		<g>
			<g>
				<g>
					<path class="st0" d="M30,0.8C13.9,0.8,0.8,13.9,0.8,30S13.9,59.2,30,59.2S59.2,46.1,59.2,30S46.1,0.8,30,0.8 M30,54.4
						C16.5,54.4,5.6,43.5,5.6,30S16.5,5.6,30,5.6S54.4,16.5,54.4,30S43.5,54.4,30,54.4"/>
				</g>
				<g>
					<path class="st0" d="M40.9,26C38.8,26,37,27.8,37,30s1.8,3.9,3.9,3.9s3.9-1.8,3.9-3.9C44.9,27.8,43.1,26,40.9,26 M40.9,32.4
						c-1.3,0-2.4-1.1-2.4-2.4s1.1-2.4,2.4-2.4c1.3,0,2.4,1.1,2.4,2.4S42.3,32.4,40.9,32.4"/>
				</g>
				<g>
					<path class="st0" d="M31.5,26c-2.2,0-3.9,1.8-3.9,3.9l0,0v8.7h1.6c0,0,0-5.5,0-5.5c0.7,0.5,1.5,0.8,2.4,0.8
						c2.2,0,3.9-1.8,3.9-3.9C35.4,27.8,33.7,26,31.5,26 M31.5,32.4c-1.3,0-2.4-1.1-2.4-2.4s1.1-2.4,2.4-2.4s2.4,1.1,2.4,2.4
						C33.9,31.3,32.8,32.4,31.5,32.4"/>
				</g>
				<g>
					<path class="st0" d="M14.1,31.6L14.1,31.6L14.1,31.6z"/>
				</g>
				<g>
					<path class="st0" d="M24.8,27.1c-1.1-1-2.5-1.3-3.8-1c-0.1,0-1.1,0.4-1.7,1L14.1,32c-0.4,0.3-1,0.5-1.5,0.4
						c-0.6,0-1.1-0.3-1.6-0.7c-0.3-0.3-0.6-0.7-0.7-1.2l3.5,0l2.3-2.3c-0.2-0.4-0.6-1-0.8-1.1c-1.6-1.5-4.1-1.5-5.6,0.1
						s-1.5,4,0.1,5.6c1.1,1,2.5,1.3,3.8,1c0.6-0.2,1.2-0.5,1.7-1l4.9-4.7c0.9-0.8,2.3-0.9,3.2,0c1,0.9,1,2.5,0,3.5
						c-0.7,0.7-1.7,0.9-2.5,0.6l0,1.6c1.3,0.2,2.6-0.1,3.6-1.1C26.3,31.1,26.3,28.6,24.8,27.1 M11,28.3c0.4-0.4,1-0.7,1.7-0.7
						c0.7,0,1.3,0.3,1.8,0.8l-0.9,0.9l-3.1,0C10.6,28.9,10.8,28.5,11,28.3"/>
				</g>
			</g>
		</g>
		<g>
			<g>
				<g>
					<path class="st0" d="M87.2,31.1l3-3c1.8,2.5,4,3.9,7,3.9s4.9-1.6,4.9-4.2c0-2.9-2.9-4-6.1-5.4c-3.6-1.5-7.5-3.2-7.5-8.2
						c0-4.8,3.8-7.7,8.5-7.7c3.8,0,6.6,1.8,8.6,4l-2.7,2.7c-2.2-2.3-3.9-3-5.9-3c-2.3,0-4.1,1.3-4.1,3.6c0,2.7,2.6,3.8,5.5,4.9
						c3.8,1.5,8.1,3.3,8.1,8.8c0,5.3-4.3,8.2-9.2,8.2C92.9,35.7,89.2,33.5,87.2,31.1"/>
				</g>
			</g>
			<g>
				<g>
					<path class="st0" d="M130.4,15c0,4.6-3.6,8.1-8.2,8.1H114v12.2h-4.4V6.8h12.5C126.7,6.8,130.4,10.5,130.4,15 M126,15.1
						c0-2.6-2-4.2-4.5-4.2H114v8.4h7.6C124.1,19.2,126,17.7,126,15.1"/>
				</g>
			</g>
			<g>
				<path class="st1" d="M142.8,30.9h-12.6l-2.4,4.5h-4.8l16.4-28.6h2.8l6.4,28.6h-4.8L142.8,30.9z M142,27l-2.5-13.5L132.2,27H142z
					"/>
			</g>
			<g>
				<g>
					<polygon class="st0" points="159,10.8 157.6,19.1 168.1,19.1 167.4,23.1 156.9,23.1 155.4,31.3 167.5,31.3 166.8,35.4 
						150.3,35.4 155.4,6.8 171.9,6.8 171.1,10.8 					"/>
				</g>
			</g>
		</g>
	</g>
</g>
</svg>
